<mxfile host="app.diagrams.net" modified="2022-04-23T02:22:03.183Z" agent="5.0 (Windows NT 10.0; Win64; x64) AppleWebKit/537.36 (KHTML, like Gecko) Chrome/100.0.4896.127 Safari/537.36" etag="Y7Xr-UlQ9szOdo-1Ri4m" version="17.4.6" type="github">
  <diagram name="Page-1" id="edf60f1a-56cd-e834-aa8a-f176f3a09ee4">
    <mxGraphModel dx="1460" dy="-227" grid="1" gridSize="10" guides="1" tooltips="1" connect="1" arrows="1" fold="1" page="1" pageScale="1" pageWidth="1100" pageHeight="850" background="none" math="0" shadow="0">
      <root>
        <mxCell id="0" />
        <mxCell id="1" parent="0" />
        <mxCell id="exMSrr1YuWYA1I3kDzl2-8" style="edgeStyle=none;curved=1;rounded=0;orthogonalLoop=1;jettySize=auto;html=1;exitX=0.5;exitY=1;exitDx=0;exitDy=0;exitPerimeter=0;entryX=0.5;entryY=0;entryDx=0;entryDy=0;endArrow=open;startSize=14;endSize=14;sourcePerimeterSpacing=8;targetPerimeterSpacing=8;" edge="1" parent="1" source="exMSrr1YuWYA1I3kDzl2-4" target="exMSrr1YuWYA1I3kDzl2-6">
          <mxGeometry relative="1" as="geometry" />
        </mxCell>
        <mxCell id="exMSrr1YuWYA1I3kDzl2-4" value="start" style="strokeWidth=1;html=1;shape=mxgraph.flowchart.terminator;whiteSpace=wrap;rounded=0;shadow=1;labelBackgroundColor=none;fontFamily=Verdana;fontSize=8;align=center;" vertex="1" parent="1">
          <mxGeometry x="630" y="990" width="60" height="30" as="geometry" />
        </mxCell>
        <mxCell id="exMSrr1YuWYA1I3kDzl2-5" value="End" style="strokeWidth=1;html=1;shape=mxgraph.flowchart.terminator;whiteSpace=wrap;rounded=0;shadow=1;labelBackgroundColor=none;fontFamily=Verdana;fontSize=8;align=center;" vertex="1" parent="1">
          <mxGeometry x="625" y="1540" width="60" height="30" as="geometry" />
        </mxCell>
        <mxCell id="exMSrr1YuWYA1I3kDzl2-9" style="edgeStyle=none;curved=1;rounded=0;orthogonalLoop=1;jettySize=auto;html=1;exitX=0.5;exitY=1;exitDx=0;exitDy=0;endArrow=open;startSize=14;endSize=14;sourcePerimeterSpacing=8;targetPerimeterSpacing=8;" edge="1" parent="1" source="exMSrr1YuWYA1I3kDzl2-6">
          <mxGeometry relative="1" as="geometry">
            <mxPoint x="660" y="1130" as="targetPoint" />
          </mxGeometry>
        </mxCell>
        <mxCell id="exMSrr1YuWYA1I3kDzl2-6" value="$start に入力された値を代入&amp;nbsp;" style="rounded=1;whiteSpace=wrap;html=1;hachureGap=4;" vertex="1" parent="1">
          <mxGeometry x="600" y="1060" width="120" height="30" as="geometry" />
        </mxCell>
        <mxCell id="exMSrr1YuWYA1I3kDzl2-16" style="edgeStyle=orthogonalEdgeStyle;rounded=0;orthogonalLoop=1;jettySize=auto;html=1;exitX=0.5;exitY=1;exitDx=0;exitDy=0;entryX=0.5;entryY=0;entryDx=0;entryDy=0;endArrow=open;startSize=14;endSize=14;sourcePerimeterSpacing=8;targetPerimeterSpacing=8;" edge="1" parent="1" source="exMSrr1YuWYA1I3kDzl2-7" target="exMSrr1YuWYA1I3kDzl2-11">
          <mxGeometry relative="1" as="geometry" />
        </mxCell>
        <mxCell id="exMSrr1YuWYA1I3kDzl2-7" value="$end に入力された値を代入" style="rounded=1;whiteSpace=wrap;html=1;hachureGap=4;" vertex="1" parent="1">
          <mxGeometry x="600" y="1130" width="120" height="30" as="geometry" />
        </mxCell>
        <mxCell id="exMSrr1YuWYA1I3kDzl2-18" style="edgeStyle=orthogonalEdgeStyle;rounded=0;orthogonalLoop=1;jettySize=auto;html=1;exitX=0.5;exitY=1;exitDx=0;exitDy=0;entryX=0.5;entryY=0;entryDx=0;entryDy=0;endArrow=open;startSize=14;endSize=14;sourcePerimeterSpacing=8;targetPerimeterSpacing=8;" edge="1" parent="1" source="exMSrr1YuWYA1I3kDzl2-10" target="exMSrr1YuWYA1I3kDzl2-13">
          <mxGeometry relative="1" as="geometry" />
        </mxCell>
        <mxCell id="exMSrr1YuWYA1I3kDzl2-10" value="$total に $i の値を足す" style="rounded=1;whiteSpace=wrap;html=1;hachureGap=4;" vertex="1" parent="1">
          <mxGeometry x="597.5" y="1240" width="125" height="30" as="geometry" />
        </mxCell>
        <mxCell id="exMSrr1YuWYA1I3kDzl2-17" style="edgeStyle=orthogonalEdgeStyle;rounded=0;orthogonalLoop=1;jettySize=auto;html=1;exitX=0.5;exitY=1;exitDx=0;exitDy=0;entryX=0.441;entryY=-0.044;entryDx=0;entryDy=0;entryPerimeter=0;endArrow=open;startSize=14;endSize=14;sourcePerimeterSpacing=8;targetPerimeterSpacing=8;" edge="1" parent="1" source="exMSrr1YuWYA1I3kDzl2-11" target="exMSrr1YuWYA1I3kDzl2-10">
          <mxGeometry relative="1" as="geometry" />
        </mxCell>
        <mxCell id="exMSrr1YuWYA1I3kDzl2-11" value="$i に $start + 1 に代入" style="rounded=1;whiteSpace=wrap;html=1;hachureGap=4;" vertex="1" parent="1">
          <mxGeometry x="590" y="1180" width="130" height="30" as="geometry" />
        </mxCell>
        <mxCell id="exMSrr1YuWYA1I3kDzl2-27" style="edgeStyle=none;rounded=0;orthogonalLoop=1;jettySize=auto;html=1;exitX=0.5;exitY=1;exitDx=0;exitDy=0;entryX=0.472;entryY=0.5;entryDx=0;entryDy=0;entryPerimeter=0;endArrow=open;startSize=14;endSize=14;sourcePerimeterSpacing=8;targetPerimeterSpacing=8;" edge="1" parent="1" source="exMSrr1YuWYA1I3kDzl2-12" target="exMSrr1YuWYA1I3kDzl2-25">
          <mxGeometry relative="1" as="geometry" />
        </mxCell>
        <mxCell id="exMSrr1YuWYA1I3kDzl2-12" value="$i が $end 以下である" style="rhombus;whiteSpace=wrap;html=1;hachureGap=4;" vertex="1" parent="1">
          <mxGeometry x="586.25" y="1360" width="147.5" height="60" as="geometry" />
        </mxCell>
        <mxCell id="exMSrr1YuWYA1I3kDzl2-20" style="edgeStyle=orthogonalEdgeStyle;rounded=0;orthogonalLoop=1;jettySize=auto;html=1;exitX=0.5;exitY=1;exitDx=0;exitDy=0;entryX=0.5;entryY=0;entryDx=0;entryDy=0;endArrow=open;startSize=14;endSize=14;sourcePerimeterSpacing=8;targetPerimeterSpacing=8;" edge="1" parent="1" source="exMSrr1YuWYA1I3kDzl2-13" target="exMSrr1YuWYA1I3kDzl2-12">
          <mxGeometry relative="1" as="geometry" />
        </mxCell>
        <mxCell id="exMSrr1YuWYA1I3kDzl2-13" value="$iをインクリメント" style="rounded=1;whiteSpace=wrap;html=1;hachureGap=4;" vertex="1" parent="1">
          <mxGeometry x="597.5" y="1300" width="120" height="30" as="geometry" />
        </mxCell>
        <mxCell id="exMSrr1YuWYA1I3kDzl2-15" value="" style="endArrow=classic;html=1;rounded=0;startSize=14;endSize=14;sourcePerimeterSpacing=8;targetPerimeterSpacing=8;edgeStyle=orthogonalEdgeStyle;entryX=1;entryY=0.5;entryDx=0;entryDy=0;" edge="1" parent="1" target="exMSrr1YuWYA1I3kDzl2-10">
          <mxGeometry width="50" height="50" relative="1" as="geometry">
            <mxPoint x="733.75" y="1390" as="sourcePoint" />
            <mxPoint x="784" y="1250" as="targetPoint" />
            <Array as="points">
              <mxPoint x="800" y="1390" />
              <mxPoint x="800" y="1255" />
            </Array>
          </mxGeometry>
        </mxCell>
        <mxCell id="exMSrr1YuWYA1I3kDzl2-21" value="Yes" style="text;html=1;align=center;verticalAlign=middle;resizable=0;points=[];autosize=1;strokeColor=none;fillColor=none;hachureGap=4;" vertex="1" parent="1">
          <mxGeometry x="717.5" y="1360" width="30" height="20" as="geometry" />
        </mxCell>
        <mxCell id="exMSrr1YuWYA1I3kDzl2-28" style="edgeStyle=none;rounded=0;orthogonalLoop=1;jettySize=auto;html=1;exitX=0.5;exitY=1;exitDx=0;exitDy=0;entryX=0.675;entryY=0.044;entryDx=0;entryDy=0;entryPerimeter=0;endArrow=open;startSize=14;endSize=14;sourcePerimeterSpacing=8;targetPerimeterSpacing=8;" edge="1" parent="1" source="exMSrr1YuWYA1I3kDzl2-25" target="exMSrr1YuWYA1I3kDzl2-5">
          <mxGeometry relative="1" as="geometry" />
        </mxCell>
        <mxCell id="exMSrr1YuWYA1I3kDzl2-25" value="$totalを出力" style="rounded=1;whiteSpace=wrap;html=1;hachureGap=4;" vertex="1" parent="1">
          <mxGeometry x="597.5" y="1470" width="132.5" height="20" as="geometry" />
        </mxCell>
      </root>
    </mxGraphModel>
  </diagram>
</mxfile>
